<svg xmlns="http://www.w3.org/2000/svg" xmlns:xlink="http://www.w3.org/1999/xlink" width="150" zoomAndPan="magnify" viewBox="0 0 375 135.000003" height="50" preserveAspectRatio="xMidYMid meet" version="1.0"><defs><clipPath id="id1"><path d="M 195 20.367188 L 271 20.367188 L 271 64 L 195 64 Z M 195 20.367188 " clip-rule="nonzero"/></clipPath><clipPath id="id2"><path d="M 195 77 L 271 77 L 271 113.429688 L 195 113.429688 Z M 195 77 " clip-rule="nonzero"/></clipPath><clipPath id="id3"><path d="M 285 20.367188 L 360.21875 20.367188 L 360.21875 64 L 285 64 Z M 285 20.367188 " clip-rule="nonzero"/></clipPath><clipPath id="id4"><path d="M 285 77 L 360.21875 77 L 360.21875 113.429688 L 285 113.429688 Z M 285 77 " clip-rule="nonzero"/></clipPath><clipPath id="id5"><path d="M 104 20.367188 L 180 20.367188 L 180 64 L 104 64 Z M 104 20.367188 " clip-rule="nonzero"/></clipPath><clipPath id="id6"><path d="M 104 77 L 180 77 L 180 113.429688 L 104 113.429688 Z M 104 77 " clip-rule="nonzero"/></clipPath><clipPath id="id7"><path d="M 14.78125 20.367188 L 90 20.367188 L 90 64 L 14.78125 64 Z M 14.78125 20.367188 " clip-rule="nonzero"/></clipPath><clipPath id="id8"><path d="M 14.78125 77 L 90 77 L 90 113.429688 L 14.78125 113.429688 Z M 14.78125 77 " clip-rule="nonzero"/></clipPath></defs><g clip-path="url(#id1)"><path fill="rgb(100%, 100%, 100%)" d="M 269.21875 20.507812 L 195.9375 20.507812 L 195.9375 63.082031 L 226.0625 63.082031 L 226.0625 48.136719 L 240.699219 48.136719 L 240.699219 63.082031 L 270.820312 63.082031 L 270.820312 20.507812 Z M 269.21875 20.507812 " fill-opacity="1" fill-rule="nonzero"/></g><g clip-path="url(#id2)"><path fill="rgb(100%, 100%, 100%)" d="M 255.902344 77.671875 L 240.699219 77.671875 L 240.699219 92.835938 L 226.0625 92.835938 L 226.0625 77.671875 L 195.9375 77.671875 L 195.9375 113.304688 L 270.820312 113.304688 L 270.820312 77.671875 Z M 255.902344 77.671875 " fill-opacity="1" fill-rule="nonzero"/></g><g clip-path="url(#id3)"><path fill="rgb(100%, 100%, 100%)" d="M 358.59375 20.507812 L 285.3125 20.507812 L 285.3125 63.082031 L 315.4375 63.082031 L 315.4375 48.136719 L 330.070312 48.136719 L 330.070312 63.082031 L 360.195312 63.082031 L 360.195312 20.507812 Z M 358.59375 20.507812 " fill-opacity="1" fill-rule="nonzero"/></g><g clip-path="url(#id4)"><path fill="rgb(100%, 100%, 100%)" d="M 345.277344 77.671875 L 330.070312 77.671875 L 330.070312 92.835938 L 315.4375 92.835938 L 315.4375 77.671875 L 285.3125 77.671875 L 285.3125 113.304688 L 360.195312 113.304688 L 360.195312 77.671875 Z M 345.277344 77.671875 " fill-opacity="1" fill-rule="nonzero"/></g><g clip-path="url(#id5)"><path fill="rgb(100%, 100%, 100%)" d="M 178.234375 20.507812 L 104.957031 20.507812 L 104.957031 63.082031 L 135.078125 63.082031 L 135.078125 48.136719 L 149.71875 48.136719 L 149.71875 63.082031 L 179.84375 63.082031 L 179.84375 20.507812 Z M 178.234375 20.507812 " fill-opacity="1" fill-rule="nonzero"/></g><g clip-path="url(#id6)"><path fill="rgb(100%, 100%, 100%)" d="M 164.925781 77.671875 L 149.71875 77.671875 L 149.71875 92.835938 L 135.078125 92.835938 L 135.078125 77.671875 L 104.957031 77.671875 L 104.957031 113.304688 L 179.84375 113.304688 L 179.84375 77.671875 Z M 164.925781 77.671875 " fill-opacity="1" fill-rule="nonzero"/></g><g clip-path="url(#id7)"><path fill="rgb(100%, 100%, 100%)" d="M 88.058594 20.507812 L 14.78125 20.507812 L 14.78125 63.082031 L 44.902344 63.082031 L 44.902344 48.136719 L 59.539062 48.136719 L 59.539062 63.082031 L 89.664062 63.082031 L 89.664062 20.507812 Z M 88.058594 20.507812 " fill-opacity="1" fill-rule="nonzero"/></g><g clip-path="url(#id8)"><path fill="rgb(100%, 100%, 100%)" d="M 74.742188 77.671875 L 59.539062 77.671875 L 59.539062 92.835938 L 44.902344 92.835938 L 44.902344 77.671875 L 14.78125 77.671875 L 14.78125 113.304688 L 89.664062 113.304688 L 89.664062 77.671875 Z M 74.742188 77.671875 " fill-opacity="1" fill-rule="nonzero"/></g></svg>